<svg xmlns="http://www.w3.org/2000/svg" width="48" height="48">
  <path d="M9 44q-1.2 0-2.1-.9Q6 42.2 6 41V7q0-1.2.9-2.1Q7.8 4 9 4h15.75q.6 0 1.175.25.575.25.975.65l10.2 10.2q.4.4.65.975T38 17.25v6.55h-3V18h-9.5q-.65 0-1.075-.425Q24 17.15 24 16.5V7H9v34h15v3zm0-3V7Zm26.8-11.15 1.4 1.4-8.2 8.2V42h2.55l8.2-8.2 1.4 1.4-8.35 8.35q-.25.25-.5.35-.25.1-.55.1h-4q-.3 0-.525-.225Q27 43.55 27 43.25v-4q0-.3.1-.55.1-.25.35-.5zm5.35 5.35-5.35-5.35 3.05-3.05q.45-.45 1.05-.45.6 0 1.05.45l3.25 3.25q.45.45.45 1.05 0 .6-.45 1.05z"/>
</svg>
