<?xml version="1.0" encoding="UTF-8" standalone="no"?>
<!-- Created with Inkscape (http://www.inkscape.org/) -->
<!-- SVG file has optimized by SVGOMG -->
<svg xmlns="http://www.w3.org/2000/svg" width="48" height="48" viewBox="0 0 12.7 12.7"><path fill="#5cc4c6" d="M7.4249 1.0899c-.5943-.0023-1.2011.1344-1.7777.3865-1.1532.5042-2.2164 1.4634-2.9631 2.757-.362.6266-.6174 1.2786-.7695 1.9264l.9281.8124c.0897-.719.3376-1.4809.7581-2.2092.6414-1.111 1.552-1.915 2.4696-2.3161.9176-.4012 1.8103-.4072 2.528.0072.3243.1872.5921.4485.7984.7705l-.646.2847.9959.7292.9953.7292.1338-1.2268.1339-1.2263-.6382.281-.0042-.0071c-.299-.5137-.7122-.947-1.2392-1.2511-.527-.3043-1.109-.4453-1.7032-.4475zM9.865 5.658c-.0816.7396-.3313 1.5277-.7653 2.2794-.6414 1.111-1.553 1.914-2.4706 2.3151-.9177.4012-1.8108.4072-2.5286-.0072-.3615-.2088-.6523-.5098-.8666-.8842l.6387-.2315-.9441-.7943-.9441-.7948-.216 1.215-.216 1.2149.678-.2455c.0322.063.0663.1251.1018.186.299.5136.7122.9469 1.2392 1.2511 1.0539.6085 2.3277.5652 3.4809.061 1.153-.5042 2.2179-1.4624 2.9647-2.756.3925-.6797.6596-1.3893.805-2.0913l-.957-.7177z"/><path fill="#007182" d="m4.8126 3.9496-.9798 4.2416.446.3752h.6578l.3907-1.693h.6697l.6982 1.3618h.8253l.1002-.7194-.492-.8997c.3866-.1281.6925-.3183.9178-.5705.2253-.2522.338-.5632.338-.9333 0-.3927-.154-.6841-.462-.8743-.308-.1923-.7441-.2884-1.3084-.2884Zm.9953.8496h.5891c.2315 0 .4062.0393.524.1178.12.0765.1799.2078.1799.3938 0 .2294-.0869.4093-.2605.5395-.1736.1281-.4186.1922-.7348.1922h-.586Z"/><path fill="#7d1c1c" d="M9.491 9.2852H8.3893l-.1525 1.0914h-.5663l.1524-1.0914H6.7212l.0774-.554h1.1017l.1524-1.0914h.5664l-.1524 1.0914h1.1017z"/></svg>